{
  "accessors": [
    {
      "bufferView": 2,
      "componentType": 5126,
      "count": 1458,
      "max": [
        514.49786376953125,
        592.44134521484375,
        174.3936767578125
      ],
      "min": [
        -260.0718994140625,
        -342.88729858398438,
        -532.34112548828125
      ],
      "type": "VEC3"
    },
    {
      "bufferView": 2,
      "byteOffset": 17496,
      "componentType": 5126,
      "count": 1458,
      "max": [
        0.99546897411346436,
        1,
        1
      ],
      "min": [
        -1,
        -0.99102616310119629,
        -0.99923217296600342
      ],
      "type": "VEC3"
    },
    {
      "bufferView": 3,
      "componentType": 5126,
      "count": 1458,
      "max": [
        0.99995827674865723,
        0.99878865480422974,
        0.999958336353302,
        1
      ],
      "min": [
        -0.99222737550735474,
        -0.99485015869140625,
        -0.99278110265731812,
        1
      ],
      "type": "VEC4"
    },
    {
      "bufferView": 1,
      "componentType": 5126,
      "count": 1458,
      "max": [
        0.99964123964309692,
        0.98378121852874756
      ],
      "min": [
        0.00035877208574675024,
        0.00035877208574675024
      ],
      "type": "VEC2"
    },
    {
      "bufferView": 0,
      "componentType": 5125,
      "count": 3240,
      "max": [
        1457
      ],
      "min": [
        0
      ],
      "type": "SCALAR"
    },
    {
      "bufferView": 2,
      "byteOffset": 34992,
      "componentType": 5126,
      "count": 1067,
      "max": [
        108.35043334960938,
        -173.86328125,
        9.4283370971679688
      ],
      "min": [
        -115.36998748779297,
        -354.3145751953125,
        -211.89921569824219
      ],
      "type": "VEC3"
    },
    {
      "bufferView": 2,
      "byteOffset": 47796,
      "componentType": 5126,
      "count": 1067,
      "max": [
        0.9979674220085144,
        0.99956220388412476,
        0.99883168935775757
      ],
      "min": [
        -0.997428297996521,
        -0.9999968409538269,
        -0.9996720552444458
      ],
      "type": "VEC3"
    },
    {
      "bufferView": 3,
      "byteOffset": 23328,
      "componentType": 5126,
      "count": 1067,
      "max": [
        0.99913871288299561,
        0.98154687881469727,
        0.99337285757064819,
        1
      ],
      "min": [
        -0.99885505437850952,
        -0.99876958131790161,
        -0.99956578016281128,
        1
      ],
      "type": "VEC4"
    },
    {
      "bufferView": 1,
      "byteOffset": 11664,
      "componentType": 5126,
      "count": 1067,
      "max": [
        0.99976271390914917,
        0.90827161073684692
      ],
      "min": [
        0.00023724438506178558,
        0.00023724438506178558
      ],
      "type": "VEC2"
    },
    {
      "bufferView": 0,
      "byteOffset": 12960,
      "componentType": 5125,
      "count": 5205,
      "max": [
        1066
      ],
      "min": [
        0
      ],
      "type": "SCALAR"
    },
    {
      "bufferView": 2,
      "byteOffset": 60600,
      "componentType": 5126,
      "count": 495,
      "max": [
        54.826839447021484,
        -23.882455825805664,
        -51.922348022460938
      ],
      "min": [
        -136.9083251953125,
        -250.98927307128906,
        -180.27847290039062
      ],
      "type": "VEC3"
    },
    {
      "bufferView": 2,
      "byteOffset": 66540,
      "componentType": 5126,
      "count": 495,
      "max": [
        0.99563348293304443,
        0.86370837688446045,
        0.99937254190444946
      ],
      "min": [
        -0.99945396184921265,
        -0.94353353977203369,
        -0.99638575315475464
      ],
      "type": "VEC3"
    },
    {
      "bufferView": 3,
      "byteOffset": 40400,
      "componentType": 5126,
      "count": 495,
      "max": [
        0.97223776578903198,
        0.57060575485229492,
        0.9995313286781311,
        1
      ],
      "min": [
        -0.99838763475418091,
        -0.78702926635742188,
        -0.99769860506057739,
        1
      ],
      "type": "VEC4"
    },
    {
      "bufferView": 1,
      "byteOffset": 20200,
      "componentType": 5126,
      "count": 495,
      "max": [
        0.99991822242736816,
        0.6686059832572937
      ],
      "min": [
        8.1756646977737546e-05,
        8.1756646977737546e-05
      ],
      "type": "VEC2"
    },
    {
      "bufferView": 0,
      "byteOffset": 33780,
      "componentType": 5125,
      "count": 2688,
      "max": [
        494
      ],
      "min": [
        0
      ],
      "type": "SCALAR"
    },
    {
      "bufferView": 2,
      "byteOffset": 72480,
      "componentType": 5126,
      "count": 1773,
      "max": [
        44.920215606689453,
        94.815116882324219,
        5.4219522476196289
      ],
      "min": [
        -183.43891906738281,
        -168.06234741210938,
        -291.644287109375
      ],
      "type": "VEC3"
    },
    {
      "bufferView": 2,
      "byteOffset": 93756,
      "componentType": 5126,
      "count": 1773,
      "max": [
        0.99924224615097046,
        0.99666428565979004,
        0.9987485408782959
      ],
      "min": [
        -0.99581658840179443,
        -0.9966883659362793,
        -0.99489235877990723
      ],
      "type": "VEC3"
    },
    {
      "bufferView": 3,
      "byteOffset": 48320,
      "componentType": 5126,
      "count": 1773,
      "max": [
        0.99924659729003906,
        0.99856269359588623,
        0.98352199792861938,
        1
      ],
      "min": [
        -0.99609774351119995,
        -0.99527865648269653,
        -0.99969959259033203,
        1
      ],
      "type": "VEC4"
    },
    {
      "bufferView": 1,
      "byteOffset": 24160,
      "componentType": 5126,
      "count": 1773,
      "max": [
        0.99983316659927368,
        0.95996624231338501
      ],
      "min": [
        0.00016678714018780738,
        0.00016678714018780738
      ],
      "type": "VEC2"
    },
    {
      "bufferView": 0,
      "byteOffset": 44532,
      "componentType": 5125,
      "count": 9666,
      "max": [
        1772
      ],
      "min": [
        0
      ],
      "type": "SCALAR"
    },
    {
      "bufferView": 2,
      "byteOffset": 115032,
      "componentType": 5126,
      "count": 3754,
      "max": [
        114.91517639160156,
        -49.054004669189453,
        -0.055524326860904694
      ],
      "min": [
        -169.732666015625,
        -358.27203369140625,
        -206.64888000488281
      ],
      "type": "VEC3"
    },
    {
      "bufferView": 2,
      "byteOffset": 160080,
      "componentType": 5126,
      "count": 3754,
      "max": [
        0.99995434284210205,
        0.99969607591629028,
        0.99909710884094238
      ],
      "min": [
        -0.99998778104782104,
        -0.99884933233261108,
        -0.99972313642501831
      ],
      "type": "VEC3"
    },
    {
      "bufferView": 3,
      "byteOffset": 76688,
      "componentType": 5126,
      "count": 3754,
      "max": [
        0.99230939149856567,
        0.99692565202713013,
        0.99893969297409058,
        1
      ],
      "min": [
        -0.99946624040603638,
        -0.99978035688400269,
        -0.99852502346038818,
        -1
      ],
      "type": "VEC4"
    },
    {
      "bufferView": 1,
      "byteOffset": 38344,
      "componentType": 5126,
      "count": 3754,
      "max": [
        0.96906626224517822,
        0.99970614910125732
      ],
      "min": [
        0,
        0
      ],
      "type": "VEC2"
    },
    {
      "bufferView": 0,
      "byteOffset": 83196,
      "componentType": 5125,
      "count": 18756,
      "max": [
        3753
      ],
      "min": [
        0
      ],
      "type": "SCALAR"
    },
    {
      "bufferView": 2,
      "byteOffset": 205128,
      "componentType": 5126,
      "count": 3760,
      "max": [
        258.5670166015625,
        142.87034606933594,
        -126.53779602050781
      ],
      "min": [
        -190.06314086914062,
        -314.88137817382812,
        -246.84536743164062
      ],
      "type": "VEC3"
    },
    {
      "bufferView": 2,
      "byteOffset": 250248,
      "componentType": 5126,
      "count": 3760,
      "max": [
        0.99923872947692871,
        0.99980217218399048,
        0.99960333108901978
      ],
      "min": [
        -0.99952572584152222,
        -0.99857616424560547,
        -0.99960386753082275
      ],
      "type": "VEC3"
    },
    {
      "bufferView": 3,
      "byteOffset": 136752,
      "componentType": 5126,
      "count": 3760,
      "max": [
        0.99864423274993896,
        0.99966347217559814,
        0.99975413084030151,
        1
      ],
      "min": [
        -0.99941426515579224,
        -0.99849188327789307,
        -0.99994248151779175,
        -1
      ],
      "type": "VEC4"
    },
    {
      "bufferView": 1,
      "byteOffset": 68376,
      "componentType": 5126,
      "count": 3760,
      "max": [
        0.95828348398208618,
        0.99983698129653931
      ],
      "min": [
        0.00016306755424011499,
        0.00016306755424011499
      ],
      "type": "VEC2"
    },
    {
      "bufferView": 0,
      "byteOffset": 158220,
      "componentType": 5125,
      "count": 19260,
      "max": [
        3759
      ],
      "min": [
        0
      ],
      "type": "SCALAR"
    },
    {
      "bufferView": 2,
      "byteOffset": 295368,
      "componentType": 5126,
      "count": 2423,
      "max": [
        279.67236328125,
        -327.861083984375,
        175.0474853515625
      ],
      "min": [
        -291.39825439453125,
        -456.85137939453125,
        -396.02285766601562
      ],
      "type": "VEC3"
    },
    {
      "bufferView": 2,
      "byteOffset": 324444,
      "componentType": 5126,
      "count": 2423,
      "max": [
        0.99873358011245728,
        0.9999997615814209,
        0.99976766109466553
      ],
      "min": [
        -0.99943572282791138,
        -1,
        -0.99998253583908081
      ],
      "type": "VEC3"
    },
    {
      "bufferView": 3,
      "byteOffset": 196912,
      "componentType": 5126,
      "count": 2423,
      "max": [
        0.99980616569519043,
        0.99900442361831665,
        0.99963587522506714,
        1
      ],
      "min": [
        -0.99995917081832886,
        -0.99946004152297974,
        -0.99999642372131348,
        -1
      ],
      "type": "VEC4"
    },
    {
      "bufferView": 1,
      "byteOffset": 98456,
      "componentType": 5126,
      "count": 2423,
      "max": [
        0.99821823835372925,
        0.97085189819335938
      ],
      "min": [
        0.025268808007240295,
        0.0095802620053291321
      ],
      "type": "VEC2"
    },
    {
      "bufferView": 0,
      "byteOffset": 235260,
      "componentType": 5125,
      "count": 13407,
      "max": [
        2422
      ],
      "min": [
        0
      ],
      "type": "SCALAR"
    }
  ],
  "asset": {
    "extras": {
      "author": "ChrisLee (https://sketchfab.com/chrisleeX)",
      "license": "CC-BY-4.0 (http://creativecommons.org/licenses/by/4.0/)",
      "source": "https://sketchfab.com/models/5edb4f4c8a4b47d2a735807f0f4646cc",
      "title": "Vivi Ornitier"
    },
    "generator": "Sketchfab-3.19.5",
    "version": "2.0"
  },
  "bufferViews": [
    {
      "buffer": 0,
      "byteLength": 288888,
      "byteOffset": 0,
      "name": "floatBufferViews",
      "target": 34963
    },
    {
      "buffer": 0,
      "byteLength": 117840,
      "byteOffset": 288888,
      "byteStride": 8,
      "name": "floatBufferViews",
      "target": 34962
    },
    {
      "buffer": 0,
      "byteLength": 353520,
      "byteOffset": 406728,
      "byteStride": 12,
      "name": "floatBufferViews",
      "target": 34962
    },
    {
      "buffer": 0,
      "byteLength": 235680,
      "byteOffset": 760248,
      "byteStride": 16,
      "name": "floatBufferViews",
      "target": 34962
    }
  ],
  "buffers": [
    {
      "byteLength": 995928,
      "uri": "scene.bin"
    }
  ],
  "images": [
    {
      "uri": "textures/Hat.001_baseColor.png"
    },
    {
      "uri": "textures/Hat.001_normal.png"
    },
    {
      "uri": "textures/Hat.001_metallicRoughness.png"
    },
    {
      "uri": "textures/Body.001_baseColor.png"
    },
    {
      "uri": "textures/Body.001_metallicRoughness.png"
    },
    {
      "uri": "textures/Body.001_emissive.png"
    },
    {
      "uri": "textures/HandsRod.001_normal.png"
    },
    {
      "uri": "textures/HandsRod.001_metallicRoughness.png"
    },
    {
      "uri": "textures/HandsRod.001_baseColor.png"
    },
    {
      "uri": "textures/Base_emissive.png"
    },
    {
      "uri": "textures/Base_normal.png"
    },
    {
      "uri": "textures/Base_metallicRoughness.png"
    },
    {
      "uri": "textures/Base_baseColor.png"
    },
    {
      "uri": "textures/Coat.001_normal.png"
    },
    {
      "uri": "textures/Coat.001_metallicRoughness.png"
    },
    {
      "uri": "textures/Coat.001_baseColor.png"
    },
    {
      "uri": "textures/Feuga_baseColor.png"
    },
    {
      "uri": "textures/Legs.001_normal.png"
    },
    {
      "uri": "textures/Legs.001_metallicRoughness.png"
    },
    {
      "uri": "textures/Legs.001_baseColor.png"
    }
  ],
  "materials": [
    {
      "alphaMode": "BLEND",
      "doubleSided": true,
      "emissiveFactor": [
        1,
        0.55318862804687507,
        0.0719734884765625
      ],
      "name": "Feuga",
      "pbrMetallicRoughness": {
        "baseColorFactor": [
          0.80000000000000004,
          0.80000000000000004,
          0.80000000000000004,
          0.83974847559999999
        ],
        "baseColorTexture": {
          "index": 16,
          "texCoord": 0
        },
        "metallicFactor": 0,
        "roughnessFactor": 0.042294850500000002
      }
    },
    {
      "doubleSided": true,
      "emissiveFactor": [
        0,
        0,
        0
      ],
      "name": "Legs.001",
      "normalTexture": {
        "index": 17,
        "scale": 1,
        "texCoord": 0
      },
      "pbrMetallicRoughness": {
        "baseColorFactor": [
          1,
          1,
          1,
          1
        ],
        "baseColorTexture": {
          "index": 19,
          "texCoord": 0
        },
        "metallicFactor": 1,
        "metallicRoughnessTexture": {
          "index": 18,
          "texCoord": 0
        },
        "roughnessFactor": 1
      }
    },
    {
      "doubleSided": true,
      "emissiveFactor": [
        1,
        1,
        1
      ],
      "emissiveTexture": {
        "index": 5,
        "texCoord": 0
      },
      "name": "Body.001",
      "pbrMetallicRoughness": {
        "baseColorFactor": [
          1,
          1,
          1,
          1
        ],
        "baseColorTexture": {
          "index": 3,
          "texCoord": 0
        },
        "metallicFactor": 1,
        "metallicRoughnessTexture": {
          "index": 4,
          "texCoord": 0
        },
        "roughnessFactor": 1
      }
    },
    {
      "doubleSided": true,
      "emissiveFactor": [
        0,
        0,
        0
      ],
      "name": "Hat.001",
      "normalTexture": {
        "index": 1,
        "scale": 1,
        "texCoord": 0
      },
      "pbrMetallicRoughness": {
        "baseColorFactor": [
          1,
          1,
          1,
          1
        ],
        "baseColorTexture": {
          "index": 0,
          "texCoord": 0
        },
        "metallicFactor": 1,
        "metallicRoughnessTexture": {
          "index": 2,
          "texCoord": 0
        },
        "roughnessFactor": 1
      }
    },
    {
      "doubleSided": true,
      "emissiveFactor": [
        0,
        0,
        0
      ],
      "name": "Coat.001",
      "normalTexture": {
        "index": 13,
        "scale": 1,
        "texCoord": 0
      },
      "pbrMetallicRoughness": {
        "baseColorFactor": [
          1,
          1,
          1,
          1
        ],
        "baseColorTexture": {
          "index": 15,
          "texCoord": 0
        },
        "metallicFactor": 1,
        "metallicRoughnessTexture": {
          "index": 14,
          "texCoord": 0
        },
        "roughnessFactor": 1
      }
    },
    {
      "doubleSided": true,
      "emissiveFactor": [
        0,
        0,
        0
      ],
      "name": "HandsRod.001",
      "normalTexture": {
        "index": 6,
        "scale": 1,
        "texCoord": 0
      },
      "pbrMetallicRoughness": {
        "baseColorFactor": [
          1,
          1,
          1,
          1
        ],
        "baseColorTexture": {
          "index": 8,
          "texCoord": 0
        },
        "metallicFactor": 1,
        "metallicRoughnessTexture": {
          "index": 7,
          "texCoord": 0
        },
        "roughnessFactor": 1
      }
    },
    {
      "doubleSided": true,
      "emissiveFactor": [
        1,
        1,
        1
      ],
      "emissiveTexture": {
        "index": 9,
        "texCoord": 0
      },
      "name": "Base",
      "normalTexture": {
        "index": 10,
        "scale": 1,
        "texCoord": 0
      },
      "pbrMetallicRoughness": {
        "baseColorFactor": [
          1,
          1,
          1,
          1
        ],
        "baseColorTexture": {
          "index": 12,
          "texCoord": 0
        },
        "metallicFactor": 1,
        "metallicRoughnessTexture": {
          "index": 11,
          "texCoord": 0
        },
        "roughnessFactor": 1
      }
    }
  ],
  "meshes": [
    {
      "name": "Vert.001_Feuga_0",
      "primitives": [
        {
          "attributes": {
            "NORMAL": 1,
            "POSITION": 0,
            "TANGENT": 2,
            "TEXCOORD_0": 3
          },
          "indices": 4,
          "material": 0,
          "mode": 4
        }
      ]
    },
    {
      "name": "Vert.001_Legs.001_0",
      "primitives": [
        {
          "attributes": {
            "NORMAL": 6,
            "POSITION": 5,
            "TANGENT": 7,
            "TEXCOORD_0": 8
          },
          "indices": 9,
          "material": 1,
          "mode": 4
        }
      ]
    },
    {
      "name": "Vert.001_Body.001_0",
      "primitives": [
        {
          "attributes": {
            "NORMAL": 11,
            "POSITION": 10,
            "TANGENT": 12,
            "TEXCOORD_0": 13
          },
          "indices": 14,
          "material": 2,
          "mode": 4
        }
      ]
    },
    {
      "name": "Vert.001_Hat.001_0",
      "primitives": [
        {
          "attributes": {
            "NORMAL": 16,
            "POSITION": 15,
            "TANGENT": 17,
            "TEXCOORD_0": 18
          },
          "indices": 19,
          "material": 3,
          "mode": 4
        }
      ]
    },
    {
      "name": "Vert.001_Coat.001_0",
      "primitives": [
        {
          "attributes": {
            "NORMAL": 21,
            "POSITION": 20,
            "TANGENT": 22,
            "TEXCOORD_0": 23
          },
          "indices": 24,
          "material": 4,
          "mode": 4
        }
      ]
    },
    {
      "name": "Vert.001_HandsRod.001_0",
      "primitives": [
        {
          "attributes": {
            "NORMAL": 26,
            "POSITION": 25,
            "TANGENT": 27,
            "TEXCOORD_0": 28
          },
          "indices": 29,
          "material": 5,
          "mode": 4
        }
      ]
    },
    {
      "name": "Vert.001_Base_0",
      "primitives": [
        {
          "attributes": {
            "NORMAL": 31,
            "POSITION": 30,
            "TANGENT": 32,
            "TEXCOORD_0": 33
          },
          "indices": 34,
          "material": 6,
          "mode": 4
        }
      ]
    }
  ],
  "nodes": [
    {
      "children": [
        1
      ],
      "name": "RootNode (gltf orientation matrix)",
      "rotation": [
        -0.70710678118654746,
        -0,
        -0,
        0.70710678118654757
      ]
    },
    {
      "children": [
        2
      ],
      "name": "RootNode (model correction matrix)"
    },
    {
      "children": [
        3
      ],
      "matrix": [
        1,
        0,
        0,
        0,
        0,
        0,
        1,
        0,
        0,
        -1,
        0,
        0,
        0,
        0,
        0,
        1
      ],
      "name": "cc647ce56c71474181cdaadd660cdf6f.fbx"
    },
    {
      "children": [
        4
      ],
      "name": "RootNode"
    },
    {
      "children": [
        5,
        6,
        7,
        8,
        9,
        10,
        11
      ],
      "matrix": [
        1,
        0,
        0,
        0,
        0,
        0.99999999999998668,
        1.6292067073209113e-07,
        0,
        0,
        -1.6292067073209113e-07,
        0.99999999999998668,
        0,
        -6.2724800109863281,
        356.37039184570312,
        99.399528503417969,
        1
      ],
      "name": "Vert.001"
    },
    {
      "mesh": 0,
      "name": "Vert.001_Feuga_0"
    },
    {
      "mesh": 1,
      "name": "Vert.001_Legs.001_0"
    },
    {
      "mesh": 2,
      "name": "Vert.001_Body.001_0"
    },
    {
      "mesh": 3,
      "name": "Vert.001_Hat.001_0"
    },
    {
      "mesh": 4,
      "name": "Vert.001_Coat.001_0"
    },
    {
      "mesh": 5,
      "name": "Vert.001_HandsRod.001_0"
    },
    {
      "mesh": 6,
      "name": "Vert.001_Base_0"
    }
  ],
  "samplers": [
    {
      "magFilter": 9729,
      "minFilter": 9987,
      "wrapS": 10497,
      "wrapT": 10497
    }
  ],
  "scene": 0,
  "scenes": [
    {
      "name": "OSG_Scene",
      "nodes": [
        0
      ]
    }
  ],
  "textures": [
    {
      "sampler": 0,
      "source": 0
    },
    {
      "sampler": 0,
      "source": 1
    },
    {
      "sampler": 0,
      "source": 2
    },
    {
      "sampler": 0,
      "source": 3
    },
    {
      "sampler": 0,
      "source": 4
    },
    {
      "sampler": 0,
      "source": 5
    },
    {
      "sampler": 0,
      "source": 6
    },
    {
      "sampler": 0,
      "source": 7
    },
    {
      "sampler": 0,
      "source": 8
    },
    {
      "sampler": 0,
      "source": 9
    },
    {
      "sampler": 0,
      "source": 10
    },
    {
      "sampler": 0,
      "source": 11
    },
    {
      "sampler": 0,
      "source": 12
    },
    {
      "sampler": 0,
      "source": 13
    },
    {
      "sampler": 0,
      "source": 14
    },
    {
      "sampler": 0,
      "source": 15
    },
    {
      "sampler": 0,
      "source": 16
    },
    {
      "sampler": 0,
      "source": 17
    },
    {
      "sampler": 0,
      "source": 18
    },
    {
      "sampler": 0,
      "source": 19
    }
  ]
}

